<svg version="1.1" xmlns="http://www.w3.org/2000/svg" xmlns:xlink="http://www.w3.org/1999/xlink" width="716" height="739"><defs/><g><g transform="translate(-142,-62) scale(1,1)"><rect fill="#C0C0C0" stroke="none" x="287" y="79" width="568" height="304" opacity="0.2"/></g><g transform="translate(-142,-62) scale(1,1)"><rect fill="#ffffff" stroke="none" x="280" y="72" width="568" height="304"/></g><g transform="translate(-142,-62) scale(1,1)"><path fill="none" stroke="#000000" d="M 280 72 L 848 72 L 848 376 L 280 376 L 280 72 Z Z" stroke-miterlimit="10"/></g><g transform="translate(-142,-62) scale(1,1)"><g><path fill="none" stroke="none"/><text fill="#000000" stroke="none" font-family="Arial" font-size="13px" font-style="normal" font-weight="bold" text-decoration="none" x="545.575927734375" y="91.5">Admin</text></g></g><g transform="translate(-142,-62) scale(1,1)"><rect fill="#C0C0C0" stroke="none" x="295" y="399" width="472" height="399" opacity="0.2"/></g><g transform="translate(-142,-62) scale(1,1)"><rect fill="#ffffff" stroke="none" x="288" y="392" width="472" height="399"/></g><g transform="translate(-142,-62) scale(1,1)"><path fill="none" stroke="#000000" d="M 288 392 L 760 392 L 760 791 L 288 791 L 288 392 Z Z" stroke-miterlimit="10"/></g><g transform="translate(-142,-62) scale(1,1)"><g><path fill="none" stroke="none"/><text fill="#000000" stroke="none" font-family="Arial" font-size="13px" font-style="normal" font-weight="bold" text-decoration="none" x="492.569580078125" y="411.5">Plataforma</text></g></g><g transform="translate(-142,-62) scale(1,1)"><path fill="#ffffff" stroke="none" d="M 168.40935031960228 193.68 C 168.40935031960228 188.886167936 172.29519264454774 185 177.088623046875 185 C 181.88205344920226 185 185.76789577414772 188.886167936 185.76789577414772 193.68 C 185.76789577414772 198.47383206400002 181.88205344920226 202.36 177.088623046875 202.36 C 172.29519264454774 202.36 168.40935031960228 198.47383206400002 168.40935031960228 193.68 Z"/></g><g transform="translate(-142,-62) scale(1,1)"><path fill="none" stroke="#000000" d="M 168.40935031960228 193.68 C 168.40935031960228 188.886167936 172.29519264454774 185 177.088623046875 185 C 181.88205344920226 185 185.76789577414772 188.886167936 185.76789577414772 193.68 C 185.76789577414772 198.47383206400002 181.88205344920226 202.36 177.088623046875 202.36 C 172.29519264454774 202.36 168.40935031960228 198.47383206400002 168.40935031960228 193.68 Z" stroke-miterlimit="10"/></g><g transform="translate(-142,-62) scale(1,1)"><path fill="none" stroke="#000000" d="M 177.088623046875 202.36 L 177.088623046875 219.64" stroke-miterlimit="10"/></g><g transform="translate(-142,-62) scale(1,1)"><path fill="none" stroke="#000000" d="M 167.89880486505683 208.84 L 186.27844122869317 208.84" stroke-miterlimit="10"/></g><g transform="translate(-142,-62) scale(1,1)"><path fill="none" stroke="#000000" d="M 177.088623046875 219.64 L 164.32498668323865 237" stroke-miterlimit="10"/></g><g transform="translate(-142,-62) scale(1,1)"><path fill="none" stroke="#000000" d="M 177.088623046875 219.64 L 189.85225941051135 237" stroke-miterlimit="10"/></g><g transform="translate(-142,-62) scale(1,1)"><g><path fill="none" stroke="none"/><text fill="#000000" stroke="none" font-family="Arial" font-size="13px" font-style="normal" font-weight="bold" text-decoration="none" x="158.66455078125" y="257.5">Admin</text></g></g><g transform="translate(-142,-62) scale(1,1)"><path fill="#ffffff" stroke="none" d="M 177.08024875710228 649.6800000000001 C 177.08024875710228 644.8861679360001 180.96609108204774 641 185.759521484375 641 C 190.55295188670226 641 194.43879421164772 644.8861679360001 194.43879421164772 649.6800000000001 C 194.43879421164772 654.473832064 190.55295188670226 658.36 185.759521484375 658.36 C 180.96609108204774 658.36 177.08024875710228 654.473832064 177.08024875710228 649.6800000000001 Z"/></g><g transform="translate(-142,-62) scale(1,1)"><path fill="none" stroke="#000000" d="M 177.08024875710228 649.6800000000001 C 177.08024875710228 644.8861679360001 180.96609108204774 641 185.759521484375 641 C 190.55295188670226 641 194.43879421164772 644.8861679360001 194.43879421164772 649.6800000000001 C 194.43879421164772 654.473832064 190.55295188670226 658.36 185.759521484375 658.36 C 180.96609108204774 658.36 177.08024875710228 654.473832064 177.08024875710228 649.6800000000001 Z" stroke-miterlimit="10"/></g><g transform="translate(-142,-62) scale(1,1)"><path fill="none" stroke="#000000" d="M 185.759521484375 658.36 L 185.759521484375 675.64" stroke-miterlimit="10"/></g><g transform="translate(-142,-62) scale(1,1)"><path fill="none" stroke="#000000" d="M 176.56970330255683 664.84 L 194.94933966619317 664.84" stroke-miterlimit="10"/></g><g transform="translate(-142,-62) scale(1,1)"><path fill="none" stroke="#000000" d="M 185.759521484375 675.64 L 172.99588512073865 693" stroke-miterlimit="10"/></g><g transform="translate(-142,-62) scale(1,1)"><path fill="none" stroke="#000000" d="M 185.759521484375 675.64 L 198.52315784801135 693" stroke-miterlimit="10"/></g><g transform="translate(-142,-62) scale(1,1)"><g><path fill="none" stroke="none"/><text fill="#000000" stroke="none" font-family="Arial" font-size="13px" font-style="normal" font-weight="bold" text-decoration="none" x="159.023193359375" y="713.5">Asistente</text></g></g><g transform="translate(-142,-62) scale(1,1)"><path fill="#C0C0C0" stroke="none" d="M 311 168 C 311 158.6111584 350.6227952 151 399.5 151 C 448.3772048 151 488 158.6111584 488 168 C 488 177.3888416 448.3772048 185 399.5 185 C 350.6227952 185 311 177.3888416 311 168 Z" opacity="0.2"/></g><g transform="translate(-142,-62) scale(1,1)"><path fill="#ffffff" stroke="none" d="M 304 161 C 304 151.6111584 343.6227952 144 392.5 144 C 441.3772048 144 481 151.6111584 481 161 C 481 170.3888416 441.3772048 178 392.5 178 C 343.6227952 178 304 170.3888416 304 161 Z"/></g><g transform="translate(-142,-62) scale(1,1)"><path fill="none" stroke="#000000" d="M 304 161 C 304 151.6111584 343.6227952 144 392.5 144 C 441.3772048 144 481 151.6111584 481 161 C 481 170.3888416 441.3772048 178 392.5 178 C 343.6227952 178 304 170.3888416 304 161 Z" stroke-miterlimit="10"/></g><g transform="translate(-142,-62) scale(1,1)"><g><path fill="none" stroke="none"/><text fill="#000000" stroke="none" font-family="Arial" font-size="13px" font-style="normal" font-weight="bold" text-decoration="none" x="339.030517578125" y="168">Gestionar horarios</text></g></g><g transform="translate(-142,-62) scale(1,1)"><path fill="#C0C0C0" stroke="none" d="M 303 272 C 303 262.6111584 347.0999472 255 401.5 255 C 455.9000528 255 500 262.6111584 500 272 C 500 281.3888416 455.9000528 289 401.5 289 C 347.0999472 289 303 281.3888416 303 272 Z" opacity="0.2"/></g><g transform="translate(-142,-62) scale(1,1)"><path fill="#ffffff" stroke="none" d="M 296 265 C 296 255.6111584 340.0999472 248 394.5 248 C 448.9000528 248 493 255.6111584 493 265 C 493 274.3888416 448.9000528 282 394.5 282 C 340.0999472 282 296 274.3888416 296 265 Z"/></g><g transform="translate(-142,-62) scale(1,1)"><path fill="none" stroke="#000000" d="M 296 265 C 296 255.6111584 340.0999472 248 394.5 248 C 448.9000528 248 493 255.6111584 493 265 C 493 274.3888416 448.9000528 282 394.5 282 C 340.0999472 282 296 274.3888416 296 265 Z" stroke-miterlimit="10"/></g><g transform="translate(-142,-62) scale(1,1)"><g><path fill="none" stroke="none"/><text fill="#000000" stroke="none" font-family="Arial" font-size="13px" font-style="normal" font-weight="bold" text-decoration="none" x="334.168701171875" y="272">Gestionar momentos</text></g></g><g transform="translate(-142,-62) scale(1,1)"><path fill="none" stroke="#000000" d="M 203 215 L 330 179" stroke-miterlimit="10"/></g><g transform="translate(-142,-62) scale(1,1)"><path fill="none" stroke="#000000" d="M 203 228 L 301 247" stroke-miterlimit="10"/></g><g transform="translate(-142,-62) scale(1,1)"><path fill="none" stroke="#000000" d="M 394 247 L 392 179" stroke-miterlimit="10" stroke-dasharray="3"/></g><g transform="translate(-142,-62) scale(1,1)"><path fill="none" stroke="#000000" d="M 396.5064712133113 189.03452625705853 L 392 179 L 388.0910747917938 189.28203791651492" stroke-miterlimit="10"/></g><g transform="translate(-142,-62) scale(1,1)"><g><path fill="none" stroke="none"/><text fill="#000000" stroke="none" font-family="Arial" font-size="13px" font-style="normal" font-weight="normal" text-decoration="none" x="328" y="221">«extend»</text></g></g><g transform="translate(-142,-62) scale(1,1)"><path fill="#C0C0C0" stroke="none" d="M 535 128 C 535 118.6111584 569.0263552 111 611 111 C 652.9736448 111 687 118.6111584 687 128 C 687 137.3888416 652.9736448 145 611 145 C 569.0263552 145 535 137.3888416 535 128 Z" opacity="0.2"/></g><g transform="translate(-142,-62) scale(1,1)"><path fill="#ffffff" stroke="none" d="M 528 121 C 528 111.6111584 562.0263552 104 604 104 C 645.9736448 104 680 111.6111584 680 121 C 680 130.3888416 645.9736448 138 604 138 C 562.0263552 138 528 130.3888416 528 121 Z"/></g><g transform="translate(-142,-62) scale(1,1)"><path fill="none" stroke="#000000" d="M 528 121 C 528 111.6111584 562.0263552 104 604 104 C 645.9736448 104 680 111.6111584 680 121 C 680 130.3888416 645.9736448 138 604 138 C 562.0263552 138 528 130.3888416 528 121 Z" stroke-miterlimit="10"/></g><g transform="translate(-142,-62) scale(1,1)"><g><path fill="none" stroke="none"/><text fill="#000000" stroke="none" font-family="Arial" font-size="13px" font-style="normal" font-weight="bold" text-decoration="none" x="580.87548828125" y="128">Agregar</text></g></g><g transform="translate(-142,-62) scale(1,1)"><path fill="#C0C0C0" stroke="none" d="M 575 184 C 575 174.6111584 604.7730607999999 167 641.5 167 C 678.2269392000001 167 708 174.6111584 708 184 C 708 193.3888416 678.2269392000001 201 641.5 201 C 604.7730607999999 201 575 193.3888416 575 184 Z" opacity="0.2"/></g><g transform="translate(-142,-62) scale(1,1)"><path fill="#ffffff" stroke="none" d="M 568 177 C 568 167.6111584 597.7730607999999 160 634.5 160 C 671.2269392000001 160 701 167.6111584 701 177 C 701 186.3888416 671.2269392000001 194 634.5 194 C 597.7730607999999 194 568 186.3888416 568 177 Z"/></g><g transform="translate(-142,-62) scale(1,1)"><path fill="none" stroke="#000000" d="M 568 177 C 568 167.6111584 597.7730607999999 160 634.5 160 C 671.2269392000001 160 701 167.6111584 701 177 C 701 186.3888416 671.2269392000001 194 634.5 194 C 597.7730607999999 194 568 186.3888416 568 177 Z" stroke-miterlimit="10"/></g><g transform="translate(-142,-62) scale(1,1)"><g><path fill="none" stroke="none"/><text fill="#000000" stroke="none" font-family="Arial" font-size="13px" font-style="normal" font-weight="bold" text-decoration="none" x="617.52001953125" y="184">Editar</text></g></g><g transform="translate(-142,-62) scale(1,1)"><path fill="#C0C0C0" stroke="none" d="M 511 240 C 511 230.6111584 537.4151968 223 570 223 C 602.5848032 223 629 230.6111584 629 240 C 629 249.3888416 602.5848032 257 570 257 C 537.4151968 257 511 249.3888416 511 240 Z" opacity="0.2"/></g><g transform="translate(-142,-62) scale(1,1)"><path fill="#ffffff" stroke="none" d="M 504 233 C 504 223.6111584 530.4151968 216 563 216 C 595.5848032 216 622 223.6111584 622 233 C 622 242.3888416 595.5848032 250 563 250 C 530.4151968 250 504 242.3888416 504 233 Z"/></g><g transform="translate(-142,-62) scale(1,1)"><path fill="none" stroke="#000000" d="M 504 233 C 504 223.6111584 530.4151968 216 563 216 C 595.5848032 216 622 223.6111584 622 233 C 622 242.3888416 595.5848032 250 563 250 C 530.4151968 250 504 242.3888416 504 233 Z" stroke-miterlimit="10"/></g><g transform="translate(-142,-62) scale(1,1)"><g><path fill="none" stroke="none"/><text fill="#000000" stroke="none" font-family="Arial" font-size="13px" font-style="normal" font-weight="bold" text-decoration="none" x="528.67822265625" y="240">Deshabilitar</text></g></g><g transform="translate(-142,-62) scale(1,1)"><path fill="none" stroke="#000000" d="M 567 173 L 482 167" stroke-miterlimit="10" stroke-dasharray="3"/></g><g transform="translate(-142,-62) scale(1,1)"><path fill="none" stroke="#000000" d="M 492.43385520782545 163.51651532196072 L 482 167 L 491.84104540937295 171.91465413337093" stroke-miterlimit="10"/></g><g transform="translate(-142,-62) scale(1,1)"><g><path fill="none" stroke="none"/><text fill="#000000" stroke="none" font-family="Arial" font-size="13px" font-style="normal" font-weight="normal" text-decoration="none" x="495" y="189">«extend»</text></g></g><g transform="translate(-142,-62) scale(1,1)"><path fill="none" stroke="#000000" d="M 527 136 L 482 144" stroke-miterlimit="10" stroke-dasharray="3"/></g><g transform="translate(-142,-62) scale(1,1)"><path fill="none" stroke="#000000" d="M 491.2689827132472 138.076659771588 L 482 144 L 492.7425945740232 146.36572648845282" stroke-miterlimit="10"/></g><g transform="translate(-142,-62) scale(1,1)"><g><path fill="none" stroke="none"/><text fill="#000000" stroke="none" font-family="Arial" font-size="13px" font-style="normal" font-weight="normal" text-decoration="none" x="504" y="156">«extend»</text></g></g><g transform="translate(-142,-62) scale(1,1)"><path fill="none" stroke="#000000" d="M 520 215 L 435 179" stroke-miterlimit="10" stroke-dasharray="3"/></g><g transform="translate(-142,-62) scale(1,1)"><path fill="none" stroke="#000000" d="M 445.99965454426695 179.08717744426065 L 435 179 L 442.71628655695736 186.83957408096379" stroke-miterlimit="10"/></g><g transform="translate(-142,-62) scale(1,1)"><g><path fill="none" stroke="none"/><text fill="#000000" stroke="none" font-family="Arial" font-size="13px" font-style="normal" font-weight="normal" text-decoration="none" x="439" y="231">«extend»</text></g></g><g transform="translate(-142,-62) scale(1,1)"><path fill="#C0C0C0" stroke="none" d="M 359 688 C 359 678.6111584 395.936504 671 441.5 671 C 487.063496 671 524 678.6111584 524 688 C 524 697.3888416 487.063496 705 441.5 705 C 395.936504 705 359 697.3888416 359 688 Z" opacity="0.2"/></g><g transform="translate(-142,-62) scale(1,1)"><path fill="#ffffff" stroke="none" d="M 352 681 C 352 671.6111584 388.936504 664 434.5 664 C 480.063496 664 517 671.6111584 517 681 C 517 690.3888416 480.063496 698 434.5 698 C 388.936504 698 352 690.3888416 352 681 Z"/></g><g transform="translate(-142,-62) scale(1,1)"><path fill="none" stroke="#000000" d="M 352 681 C 352 671.6111584 388.936504 664 434.5 664 C 480.063496 664 517 671.6111584 517 681 C 517 690.3888416 480.063496 698 434.5 698 C 388.936504 698 352 690.3888416 352 681 Z" stroke-miterlimit="10"/></g><g transform="translate(-142,-62) scale(1,1)"><g><path fill="none" stroke="none"/><text fill="#000000" stroke="none" font-family="Arial" font-size="13px" font-style="normal" font-weight="bold" text-decoration="none" x="385.369140625" y="688">visualizar horario</text></g></g><g transform="translate(-142,-62) scale(1,1)"><path fill="#C0C0C0" stroke="none" d="M 351 584 C 351 574.6111584 389.7273648 567 437.5 567 C 485.2726352 567 524 574.6111584 524 584 C 524 593.3888416 485.2726352 601 437.5 601 C 389.7273648 601 351 593.3888416 351 584 Z" opacity="0.2"/></g><g transform="translate(-142,-62) scale(1,1)"><path fill="#ffffff" stroke="none" d="M 344 577 C 344 567.6111584 382.7273648 560 430.5 560 C 478.2726352 560 517 567.6111584 517 577 C 517 586.3888416 478.2726352 594 430.5 594 C 382.7273648 594 344 586.3888416 344 577 Z"/></g><g transform="translate(-142,-62) scale(1,1)"><path fill="none" stroke="#000000" d="M 344 577 C 344 567.6111584 382.7273648 560 430.5 560 C 478.2726352 560 517 567.6111584 517 577 C 517 586.3888416 478.2726352 594 430.5 594 C 382.7273648 594 344 586.3888416 344 577 Z" stroke-miterlimit="10"/></g><g transform="translate(-142,-62) scale(1,1)"><g><path fill="none" stroke="none"/><text fill="#000000" stroke="none" font-family="Arial" font-size="13px" font-style="normal" font-weight="bold" text-decoration="none" x="378.122314453125" y="584">visalizar momento</text></g></g><g transform="translate(-142,-62) scale(1,1)"><path fill="#C0C0C0" stroke="none" d="M 583 576 C 583 566.6111584 620.3842192 559 666.5 559 C 712.6157808 559 750 566.6111584 750 576 C 750 585.3888416 712.6157808 593 666.5 593 C 620.3842192 593 583 585.3888416 583 576 Z" opacity="0.2"/></g><g transform="translate(-142,-62) scale(1,1)"><path fill="#ffffff" stroke="none" d="M 576 569 C 576 559.6111584 613.3842192 552 659.5 552 C 705.6157808 552 743 559.6111584 743 569 C 743 578.3888416 705.6157808 586 659.5 586 C 613.3842192 586 576 578.3888416 576 569 Z"/></g><g transform="translate(-142,-62) scale(1,1)"><path fill="none" stroke="#000000" d="M 576 569 C 576 559.6111584 613.3842192 552 659.5 552 C 705.6157808 552 743 559.6111584 743 569 C 743 578.3888416 705.6157808 586 659.5 586 C 613.3842192 586 576 578.3888416 576 569 Z" stroke-miterlimit="10"/></g><g transform="translate(-142,-62) scale(1,1)"><g><path fill="none" stroke="none"/><text fill="#000000" stroke="none" font-family="Arial" font-size="13px" font-style="normal" font-weight="bold" text-decoration="none" x="608.19189453125" y="576">Realizar pregunta</text></g></g><g transform="translate(-142,-62) scale(1,1)"><path fill="#C0C0C0" stroke="none" d="M 599 656 C 599 646.6111584 621.6096176 639 649.5 639 C 677.3903824 639 700 646.6111584 700 656 C 700 665.3888416 677.3903824 673 649.5 673 C 621.6096176 673 599 665.3888416 599 656 Z" opacity="0.2"/></g><g transform="translate(-142,-62) scale(1,1)"><path fill="#ffffff" stroke="none" d="M 592 649 C 592 639.6111584 614.6096176 632 642.5 632 C 670.3903824 632 693 639.6111584 693 649 C 693 658.3888416 670.3903824 666 642.5 666 C 614.6096176 666 592 658.3888416 592 649 Z"/></g><g transform="translate(-142,-62) scale(1,1)"><path fill="none" stroke="#000000" d="M 592 649 C 592 639.6111584 614.6096176 632 642.5 632 C 670.3903824 632 693 639.6111584 693 649 C 693 658.3888416 670.3903824 666 642.5 666 C 614.6096176 666 592 658.3888416 592 649 Z" stroke-miterlimit="10"/></g><g transform="translate(-142,-62) scale(1,1)"><g><path fill="none" stroke="none"/><text fill="#000000" stroke="none" font-family="Arial" font-size="13px" font-style="normal" font-weight="bold" text-decoration="none" x="619.734130859375" y="656">Puntuar</text></g></g><g transform="translate(-142,-62) scale(1,1)"><path fill="none" stroke="#000000" d="M 431 595 L 433 663" stroke-miterlimit="10" stroke-dasharray="3"/></g><g transform="translate(-142,-62) scale(1,1)"><path fill="none" stroke="#000000" d="M 428.4935287866887 652.9654737429415 L 433 663 L 436.9089252082062 652.7179620834851" stroke-miterlimit="10"/></g><g transform="translate(-142,-62) scale(1,1)"><g><path fill="none" stroke="none"/><text fill="#000000" stroke="none" font-family="Arial" font-size="13px" font-style="normal" font-weight="normal" text-decoration="none" x="434" y="635">«include»</text></g></g><g transform="translate(-142,-62) scale(1,1)"><path fill="none" stroke="#000000" d="M 575 572 L 518 574" stroke-miterlimit="10" stroke-dasharray="3"/></g><g transform="translate(-142,-62) scale(1,1)"><path fill="none" stroke="#000000" d="M 528.0088132099695 569.4367053428537 L 518 574 L 528.3040362890195 577.8505630957784" stroke-miterlimit="10"/></g><g transform="translate(-142,-62) scale(1,1)"><g><path fill="none" stroke="none"/><text fill="#000000" stroke="none" font-family="Arial" font-size="13px" font-style="normal" font-weight="normal" text-decoration="none" x="543" y="592">«extend»</text></g></g><g transform="translate(-142,-62) scale(1,1)"><path fill="none" stroke="#000000" d="M 591 632 L 483 595" stroke-miterlimit="10" stroke-dasharray="3"/></g><g transform="translate(-142,-62) scale(1,1)"><path fill="none" stroke="#000000" d="M 493.9784273767808 594.311427322101 L 483 595 L 491.2498148547679 602.2760260350036" stroke-miterlimit="10"/></g><g transform="translate(-142,-62) scale(1,1)"><g><path fill="none" stroke="none"/><text fill="#000000" stroke="none" font-family="Arial" font-size="13px" font-style="normal" font-weight="normal" text-decoration="none" x="504" y="630">«extend»</text></g></g><g transform="translate(-142,-62) scale(1,1)"><path fill="#ffffff" stroke="none" d="M 181.40617649147728 465.68 C 181.40617649147728 460.886167936 185.29201881642274 457 190.08544921875 457 C 194.87887962107726 457 198.76472194602272 460.886167936 198.76472194602272 465.68 C 198.76472194602272 470.473832064 194.87887962107726 474.36 190.08544921875 474.36 C 185.29201881642274 474.36 181.40617649147728 470.473832064 181.40617649147728 465.68 Z"/></g><g transform="translate(-142,-62) scale(1,1)"><path fill="none" stroke="#000000" d="M 181.40617649147728 465.68 C 181.40617649147728 460.886167936 185.29201881642274 457 190.08544921875 457 C 194.87887962107726 457 198.76472194602272 460.886167936 198.76472194602272 465.68 C 198.76472194602272 470.473832064 194.87887962107726 474.36 190.08544921875 474.36 C 185.29201881642274 474.36 181.40617649147728 470.473832064 181.40617649147728 465.68 Z" stroke-miterlimit="10"/></g><g transform="translate(-142,-62) scale(1,1)"><path fill="none" stroke="#000000" d="M 190.08544921875 474.36 L 190.08544921875 491.64" stroke-miterlimit="10"/></g><g transform="translate(-142,-62) scale(1,1)"><path fill="none" stroke="#000000" d="M 180.89563103693183 480.84 L 199.27526740056817 480.84" stroke-miterlimit="10"/></g><g transform="translate(-142,-62) scale(1,1)"><path fill="none" stroke="#000000" d="M 190.08544921875 491.64 L 177.32181285511365 509" stroke-miterlimit="10"/></g><g transform="translate(-142,-62) scale(1,1)"><path fill="none" stroke="#000000" d="M 190.08544921875 491.64 L 202.84908558238635 509" stroke-miterlimit="10"/></g><g transform="translate(-142,-62) scale(1,1)"><g><path fill="none" stroke="none"/><text fill="#000000" stroke="none" font-family="Arial" font-size="13px" font-style="normal" font-weight="bold" text-decoration="none" x="158.65185546875" y="529.5">Moderador</text></g></g><g transform="translate(-142,-62) scale(1,1)"><path fill="#C0C0C0" stroke="none" d="M 343 496 C 343 486.6111584 385.9806592 479 439 479 C 492.0193408 479 535 486.6111584 535 496 C 535 505.3888416 492.0193408 513 439 513 C 385.9806592 513 343 505.3888416 343 496 Z" opacity="0.2"/></g><g transform="translate(-142,-62) scale(1,1)"><path fill="#ffffff" stroke="none" d="M 336 489 C 336 479.6111584 378.9806592 472 432 472 C 485.0193408 472 528 479.6111584 528 489 C 528 498.3888416 485.0193408 506 432 506 C 378.9806592 506 336 498.3888416 336 489 Z"/></g><g transform="translate(-142,-62) scale(1,1)"><path fill="none" stroke="#000000" d="M 336 489 C 336 479.6111584 378.9806592 472 432 472 C 485.0193408 472 528 479.6111584 528 489 C 528 498.3888416 485.0193408 506 432 506 C 378.9806592 506 336 498.3888416 336 489 Z" stroke-miterlimit="10"/></g><g transform="translate(-142,-62) scale(1,1)"><g><path fill="none" stroke="none"/><text fill="#000000" stroke="none" font-family="Arial" font-size="13px" font-style="normal" font-weight="bold" text-decoration="none" x="373.103271484375" y="496">Gestionar preguntas</text></g></g><g transform="translate(-142,-62) scale(1,1)"><path fill="#C0C0C0" stroke="none" d="M 543 288 C 543 278.6111584 611.9481408 271 697 271 C 782.0518592 271 851 278.6111584 851 288 C 851 297.3888416 782.0518592 305 697 305 C 611.9481408 305 543 297.3888416 543 288 Z" opacity="0.2"/></g><g transform="translate(-142,-62) scale(1,1)"><path fill="#ffffff" stroke="none" d="M 536 281 C 536 271.6111584 604.9481408 264 690 264 C 775.0518592 264 844 271.6111584 844 281 C 844 290.3888416 775.0518592 298 690 298 C 604.9481408 298 536 290.3888416 536 281 Z"/></g><g transform="translate(-142,-62) scale(1,1)"><path fill="none" stroke="#000000" d="M 536 281 C 536 271.6111584 604.9481408 264 690 264 C 775.0518592 264 844 271.6111584 844 281 C 844 290.3888416 775.0518592 298 690 298 C 604.9481408 298 536 290.3888416 536 281 Z" stroke-miterlimit="10"/></g><g transform="translate(-142,-62) scale(1,1)"><g><path fill="none" stroke="none"/><text fill="#000000" stroke="none" font-family="Arial" font-size="13px" font-style="normal" font-weight="bold" text-decoration="none" x="596.051513671875" y="288">habilitar o deshabilitar preguntas</text></g></g><g transform="translate(-142,-62) scale(1,1)"><path fill="none" stroke="#000000" d="M 535 273 L 494 270" stroke-miterlimit="10" stroke-dasharray="3"/></g><g transform="translate(-142,-62) scale(1,1)"><path fill="none" stroke="#000000" d="M 504.44277060263386 266.5433336665559 L 494 270 L 503.8283861121755 274.93992170282036" stroke-miterlimit="10"/></g><g transform="translate(-142,-62) scale(1,1)"><g><path fill="none" stroke="none"/><text fill="#000000" stroke="none" font-family="Arial" font-size="13px" font-style="normal" font-weight="normal" text-decoration="none" x="486" y="293">«extend»</text></g></g><g transform="translate(-142,-62) scale(1,1)"><path fill="none" stroke="#000000" d="M 229 494 L 335 491" stroke-miterlimit="10"/></g><g transform="translate(-142,-62) scale(1,1)"><path fill="none" stroke="#000000" d="M 432 507 L 430 559" stroke-miterlimit="10" stroke-dasharray="3"/></g><g transform="translate(-142,-62) scale(1,1)"><path fill="none" stroke="#000000" d="M 426.18417566617 548.6830486744702 L 430 559 L 434.5969909811858 549.0066184942785" stroke-miterlimit="10"/></g><g transform="translate(-142,-62) scale(1,1)"><g><path fill="none" stroke="none"/><text fill="#000000" stroke="none" font-family="Arial" font-size="13px" font-style="normal" font-weight="normal" text-decoration="none" x="433" y="541">«include»</text></g></g><g transform="translate(-142,-62) scale(1,1)"><path fill="#C0C0C0" stroke="none" d="M 463 352 C 463 342.6111584 533.0674288 335 619.5 335 C 705.9325712 335 776 342.6111584 776 352 C 776 361.3888416 705.9325712 369 619.5 369 C 533.0674288 369 463 361.3888416 463 352 Z" opacity="0.2"/></g><g transform="translate(-142,-62) scale(1,1)"><path fill="#ffffff" stroke="none" d="M 456 345 C 456 335.6111584 526.0674288 328 612.5 328 C 698.9325712 328 769 335.6111584 769 345 C 769 354.3888416 698.9325712 362 612.5 362 C 526.0674288 362 456 354.3888416 456 345 Z"/></g><g transform="translate(-142,-62) scale(1,1)"><path fill="none" stroke="#000000" d="M 456 345 C 456 335.6111584 526.0674288 328 612.5 328 C 698.9325712 328 769 335.6111584 769 345 C 769 354.3888416 698.9325712 362 612.5 362 C 526.0674288 362 456 354.3888416 456 345 Z" stroke-miterlimit="10"/></g><g transform="translate(-142,-62) scale(1,1)"><g><path fill="none" stroke="none"/><text fill="#000000" stroke="none" font-family="Arial" font-size="13px" font-style="normal" font-weight="bold" text-decoration="none" x="515.656982421875" y="352">habilitar o deshabilitar puntuación</text></g></g><g transform="translate(-142,-62) scale(1,1)"><path fill="none" stroke="#000000" d="M 563 327 L 443 283" stroke-miterlimit="10" stroke-dasharray="3"/></g><g transform="translate(-142,-62) scale(1,1)"><path fill="none" stroke="#000000" d="M 453.99064078810306 282.54633154519496 L 443 283 L 451.09234867165617 290.4507645900501" stroke-miterlimit="10"/></g><g transform="translate(-142,-62) scale(1,1)"><g><path fill="none" stroke="none"/><text fill="#000000" stroke="none" font-family="Arial" font-size="13px" font-style="normal" font-weight="normal" text-decoration="none" x="456" y="325">«extend»</text></g></g><g transform="translate(-142,-62) scale(1,1)"><path fill="none" stroke="#000000" d="M 221 664 L 387 595" stroke-miterlimit="10"/></g></g></svg>