<svg version="1.1" xmlns="http://www.w3.org/2000/svg" xmlns:xlink="http://www.w3.org/1999/xlink" width="716" height="739"><defs/><g><g transform="translate(-142,-62) scale(1,1)"><rect fill="#C0C0C0" stroke="none" x="287" y="79" width="568" height="304" opacity="0.2"/></g><g transform="translate(-142,-62) scale(1,1)"><rect fill="#ffffff" stroke="none" x="280" y="72" width="568" height="304"/></g><g transform="translate(-142,-62) scale(1,1)"><path fill="none" stroke="#000000" d="M 280 72 L 848 72 L 848 376 L 280 376 L 280 72 Z Z" stroke-miterlimit="10"/></g><g transform="translate(-142,-62) scale(1,1)"><g><path fill="none" stroke="none"/><text fill="#000000" stroke="none" font-family="Arial" font-size="13px" font-style="normal" font-weight="bold" text-decoration="none" x="545.575927734375" y="91.5">Admin</text></g></g><g transform="translate(-142,-62) scale(1,1)"><rect fill="#C0C0C0" stroke="none" x="295" y="391" width="480" height="407" opacity="0.2"/></g><g transform="translate(-142,-62) scale(1,1)"><rect fill="#ffffff" stroke="none" x="288" y="384" width="480" height="407"/></g><g transform="translate(-142,-62) scale(1,1)"><path fill="none" stroke="#000000" d="M 288 384 L 768 384 L 768 791 L 288 791 L 288 384 Z Z" stroke-miterlimit="10"/></g><g transform="translate(-142,-62) scale(1,1)"><g><path fill="none" stroke="none"/><text fill="#000000" stroke="none" font-family="Arial" font-size="13px" font-style="normal" font-weight="bold" text-decoration="none" x="496.569580078125" y="403.5">Plataforma</text></g></g><g transform="translate(-142,-62) scale(1,1)"><path fill="#ffffff" stroke="none" d="M 168.40935031960228 193.68 C 168.40935031960228 188.886167936 172.29519264454774 185 177.088623046875 185 C 181.88205344920226 185 185.76789577414772 188.886167936 185.76789577414772 193.68 C 185.76789577414772 198.47383206400002 181.88205344920226 202.36 177.088623046875 202.36 C 172.29519264454774 202.36 168.40935031960228 198.47383206400002 168.40935031960228 193.68 Z"/></g><g transform="translate(-142,-62) scale(1,1)"><path fill="none" stroke="#000000" d="M 168.40935031960228 193.68 C 168.40935031960228 188.886167936 172.29519264454774 185 177.088623046875 185 C 181.88205344920226 185 185.76789577414772 188.886167936 185.76789577414772 193.68 C 185.76789577414772 198.47383206400002 181.88205344920226 202.36 177.088623046875 202.36 C 172.29519264454774 202.36 168.40935031960228 198.47383206400002 168.40935031960228 193.68 Z" stroke-miterlimit="10"/></g><g transform="translate(-142,-62) scale(1,1)"><path fill="none" stroke="#000000" d="M 177.088623046875 202.36 L 177.088623046875 219.64" stroke-miterlimit="10"/></g><g transform="translate(-142,-62) scale(1,1)"><path fill="none" stroke="#000000" d="M 167.89880486505683 208.84 L 186.27844122869317 208.84" stroke-miterlimit="10"/></g><g transform="translate(-142,-62) scale(1,1)"><path fill="none" stroke="#000000" d="M 177.088623046875 219.64 L 164.32498668323865 237" stroke-miterlimit="10"/></g><g transform="translate(-142,-62) scale(1,1)"><path fill="none" stroke="#000000" d="M 177.088623046875 219.64 L 189.85225941051135 237" stroke-miterlimit="10"/></g><g transform="translate(-142,-62) scale(1,1)"><g><path fill="none" stroke="none"/><text fill="#000000" stroke="none" font-family="Arial" font-size="13px" font-style="normal" font-weight="bold" text-decoration="none" x="158.66455078125" y="257.5">Admin</text></g></g><g transform="translate(-142,-62) scale(1,1)"><path fill="#ffffff" stroke="none" d="M 177.08024875710228 649.6800000000001 C 177.08024875710228 644.8861679360001 180.96609108204774 641 185.759521484375 641 C 190.55295188670226 641 194.43879421164772 644.8861679360001 194.43879421164772 649.6800000000001 C 194.43879421164772 654.473832064 190.55295188670226 658.36 185.759521484375 658.36 C 180.96609108204774 658.36 177.08024875710228 654.473832064 177.08024875710228 649.6800000000001 Z"/></g><g transform="translate(-142,-62) scale(1,1)"><path fill="none" stroke="#000000" d="M 177.08024875710228 649.6800000000001 C 177.08024875710228 644.8861679360001 180.96609108204774 641 185.759521484375 641 C 190.55295188670226 641 194.43879421164772 644.8861679360001 194.43879421164772 649.6800000000001 C 194.43879421164772 654.473832064 190.55295188670226 658.36 185.759521484375 658.36 C 180.96609108204774 658.36 177.08024875710228 654.473832064 177.08024875710228 649.6800000000001 Z" stroke-miterlimit="10"/></g><g transform="translate(-142,-62) scale(1,1)"><path fill="none" stroke="#000000" d="M 185.759521484375 658.36 L 185.759521484375 675.64" stroke-miterlimit="10"/></g><g transform="translate(-142,-62) scale(1,1)"><path fill="none" stroke="#000000" d="M 176.56970330255683 664.84 L 194.94933966619317 664.84" stroke-miterlimit="10"/></g><g transform="translate(-142,-62) scale(1,1)"><path fill="none" stroke="#000000" d="M 185.759521484375 675.64 L 172.99588512073865 693" stroke-miterlimit="10"/></g><g transform="translate(-142,-62) scale(1,1)"><path fill="none" stroke="#000000" d="M 185.759521484375 675.64 L 198.52315784801135 693" stroke-miterlimit="10"/></g><g transform="translate(-142,-62) scale(1,1)"><g><path fill="none" stroke="none"/><text fill="#000000" stroke="none" font-family="Arial" font-size="13px" font-style="normal" font-weight="bold" text-decoration="none" x="159.023193359375" y="713.5">Asistente</text></g></g><g transform="translate(-142,-62) scale(1,1)"><path fill="#C0C0C0" stroke="none" d="M 311 168 C 311 158.6111584 350.6227952 151 399.5 151 C 448.3772048 151 488 158.6111584 488 168 C 488 177.3888416 448.3772048 185 399.5 185 C 350.6227952 185 311 177.3888416 311 168 Z" opacity="0.2"/></g><g transform="translate(-142,-62) scale(1,1)"><path fill="#ffffff" stroke="none" d="M 304 161 C 304 151.6111584 343.6227952 144 392.5 144 C 441.3772048 144 481 151.6111584 481 161 C 481 170.3888416 441.3772048 178 392.5 178 C 343.6227952 178 304 170.3888416 304 161 Z"/></g><g transform="translate(-142,-62) scale(1,1)"><path fill="none" stroke="#000000" d="M 304 161 C 304 151.6111584 343.6227952 144 392.5 144 C 441.3772048 144 481 151.6111584 481 161 C 481 170.3888416 441.3772048 178 392.5 178 C 343.6227952 178 304 170.3888416 304 161 Z" stroke-miterlimit="10"/></g><g transform="translate(-142,-62) scale(1,1)"><g><path fill="none" stroke="none"/><text fill="#000000" stroke="none" font-family="Arial" font-size="13px" font-style="normal" font-weight="bold" text-decoration="none" x="339.030517578125" y="168">Gestionar horarios</text></g></g><g transform="translate(-142,-62) scale(1,1)"><path fill="#C0C0C0" stroke="none" d="M 303 272 C 303 262.6111584 347.0999472 255 401.5 255 C 455.9000528 255 500 262.6111584 500 272 C 500 281.3888416 455.9000528 289 401.5 289 C 347.0999472 289 303 281.3888416 303 272 Z" opacity="0.2"/></g><g transform="translate(-142,-62) scale(1,1)"><path fill="#ffffff" stroke="none" d="M 296 265 C 296 255.6111584 340.0999472 248 394.5 248 C 448.9000528 248 493 255.6111584 493 265 C 493 274.3888416 448.9000528 282 394.5 282 C 340.0999472 282 296 274.3888416 296 265 Z"/></g><g transform="translate(-142,-62) scale(1,1)"><path fill="none" stroke="#000000" d="M 296 265 C 296 255.6111584 340.0999472 248 394.5 248 C 448.9000528 248 493 255.6111584 493 265 C 493 274.3888416 448.9000528 282 394.5 282 C 340.0999472 282 296 274.3888416 296 265 Z" stroke-miterlimit="10"/></g><g transform="translate(-142,-62) scale(1,1)"><g><path fill="none" stroke="none"/><text fill="#000000" stroke="none" font-family="Arial" font-size="13px" font-style="normal" font-weight="bold" text-decoration="none" x="334.168701171875" y="272">Gestionar momentos</text></g></g><g transform="translate(-142,-62) scale(1,1)"><path fill="none" stroke="#000000" d="M 203 215 L 330 179" stroke-miterlimit="10"/></g><g transform="translate(-142,-62) scale(1,1)"><path fill="none" stroke="#000000" d="M 203 228 L 301 247" stroke-miterlimit="10"/></g><g transform="translate(-142,-62) scale(1,1)"><path fill="none" stroke="#000000" d="M 394 247 L 392 179" stroke-miterlimit="10" stroke-dasharray="3"/></g><g transform="translate(-142,-62) scale(1,1)"><path fill="none" stroke="#000000" d="M 396.5064712133113 189.03452625705853 L 392 179 L 388.0910747917938 189.28203791651492" stroke-miterlimit="10"/></g><g transform="translate(-142,-62) scale(1,1)"><g><path fill="none" stroke="none"/><text fill="#000000" stroke="none" font-family="Arial" font-size="13px" font-style="normal" font-weight="normal" text-decoration="none" x="328" y="221">«extend»</text></g></g><g transform="translate(-142,-62) scale(1,1)"><path fill="#C0C0C0" stroke="none" d="M 535 128 C 535 118.6111584 569.0263552 111 611 111 C 652.9736448 111 687 118.6111584 687 128 C 687 137.3888416 652.9736448 145 611 145 C 569.0263552 145 535 137.3888416 535 128 Z" opacity="0.2"/></g><g transform="translate(-142,-62) scale(1,1)"><path fill="#ffffff" stroke="none" d="M 528 121 C 528 111.6111584 562.0263552 104 604 104 C 645.9736448 104 680 111.6111584 680 121 C 680 130.3888416 645.9736448 138 604 138 C 562.0263552 138 528 130.3888416 528 121 Z"/></g><g transform="translate(-142,-62) scale(1,1)"><path fill="none" stroke="#000000" d="M 528 121 C 528 111.6111584 562.0263552 104 604 104 C 645.9736448 104 680 111.6111584 680 121 C 680 130.3888416 645.9736448 138 604 138 C 562.0263552 138 528 130.3888416 528 121 Z" stroke-miterlimit="10"/></g><g transform="translate(-142,-62) scale(1,1)"><g><path fill="none" stroke="none"/><text fill="#000000" stroke="none" font-family="Arial" font-size="13px" font-style="normal" font-weight="bold" text-decoration="none" x="580.87548828125" y="128">Agregar</text></g></g><g transform="translate(-142,-62) scale(1,1)"><path fill="#C0C0C0" stroke="none" d="M 575 184 C 575 174.6111584 604.7730607999999 167 641.5 167 C 678.2269392000001 167 708 174.6111584 708 184 C 708 193.3888416 678.2269392000001 201 641.5 201 C 604.7730607999999 201 575 193.3888416 575 184 Z" opacity="0.2"/></g><g transform="translate(-142,-62) scale(1,1)"><path fill="#ffffff" stroke="none" d="M 568 177 C 568 167.6111584 597.7730607999999 160 634.5 160 C 671.2269392000001 160 701 167.6111584 701 177 C 701 186.3888416 671.2269392000001 194 634.5 194 C 597.7730607999999 194 568 186.3888416 568 177 Z"/></g><g transform="translate(-142,-62) scale(1,1)"><path fill="none" stroke="#000000" d="M 568 177 C 568 167.6111584 597.7730607999999 160 634.5 160 C 671.2269392000001 160 701 167.6111584 701 177 C 701 186.3888416 671.2269392000001 194 634.5 194 C 597.7730607999999 194 568 186.3888416 568 177 Z" stroke-miterlimit="10"/></g><g transform="translate(-142,-62) scale(1,1)"><g><path fill="none" stroke="none"/><text fill="#000000" stroke="none" font-family="Arial" font-size="13px" font-style="normal" font-weight="bold" text-decoration="none" x="617.52001953125" y="184">Editar</text></g></g><g transform="translate(-142,-62) scale(1,1)"><path fill="#C0C0C0" stroke="none" d="M 511 240 C 511 230.6111584 537.4151968 223 570 223 C 602.5848032 223 629 230.6111584 629 240 C 629 249.3888416 602.5848032 257 570 257 C 537.4151968 257 511 249.3888416 511 240 Z" opacity="0.2"/></g><g transform="translate(-142,-62) scale(1,1)"><path fill="#ffffff" stroke="none" d="M 504 233 C 504 223.6111584 530.4151968 216 563 216 C 595.5848032 216 622 223.6111584 622 233 C 622 242.3888416 595.5848032 250 563 250 C 530.4151968 250 504 242.3888416 504 233 Z"/></g><g transform="translate(-142,-62) scale(1,1)"><path fill="none" stroke="#000000" d="M 504 233 C 504 223.6111584 530.4151968 216 563 216 C 595.5848032 216 622 223.6111584 622 233 C 622 242.3888416 595.5848032 250 563 250 C 530.4151968 250 504 242.3888416 504 233 Z" stroke-miterlimit="10"/></g><g transform="translate(-142,-62) scale(1,1)"><g><path fill="none" stroke="none"/><text fill="#000000" stroke="none" font-family="Arial" font-size="13px" font-style="normal" font-weight="bold" text-decoration="none" x="528.67822265625" y="240">Deshabilitar</text></g></g><g transform="translate(-142,-62) scale(1,1)"><path fill="none" stroke="#000000" d="M 567 173 L 482 167" stroke-miterlimit="10" stroke-dasharray="3"/></g><g transform="translate(-142,-62) scale(1,1)"><path fill="none" stroke="#000000" d="M 492.43385520782545 163.51651532196072 L 482 167 L 491.84104540937295 171.91465413337093" stroke-miterlimit="10"/></g><g transform="translate(-142,-62) scale(1,1)"><g><path fill="none" stroke="none"/><text fill="#000000" stroke="none" font-family="Arial" font-size="13px" font-style="normal" font-weight="normal" text-decoration="none" x="495" y="189">«extend»</text></g></g><g transform="translate(-142,-62) scale(1,1)"><path fill="none" stroke="#000000" d="M 527 136 L 482 144" stroke-miterlimit="10" stroke-dasharray="3"/></g><g transform="translate(-142,-62) scale(1,1)"><path fill="none" stroke="#000000" d="M 491.2689827132472 138.076659771588 L 482 144 L 492.7425945740232 146.36572648845282" stroke-miterlimit="10"/></g><g transform="translate(-142,-62) scale(1,1)"><g><path fill="none" stroke="none"/><text fill="#000000" stroke="none" font-family="Arial" font-size="13px" font-style="normal" font-weight="normal" text-decoration="none" x="504" y="156">«extend»</text></g></g><g transform="translate(-142,-62) scale(1,1)"><path fill="none" stroke="#000000" d="M 520 215 L 435 179" stroke-miterlimit="10" stroke-dasharray="3"/></g><g transform="translate(-142,-62) scale(1,1)"><path fill="none" stroke="#000000" d="M 445.99965454426695 179.08717744426065 L 435 179 L 442.71628655695736 186.83957408096379" stroke-miterlimit="10"/></g><g transform="translate(-142,-62) scale(1,1)"><g><path fill="none" stroke="none"/><text fill="#000000" stroke="none" font-family="Arial" font-size="13px" font-style="normal" font-weight="normal" text-decoration="none" x="439" y="231">«extend»</text></g></g><g transform="translate(-142,-62) scale(1,1)"><path fill="#C0C0C0" stroke="none" d="M 359 752 C 359 742.6111584 395.936504 735 441.5 735 C 487.063496 735 524 742.6111584 524 752 C 524 761.3888416 487.063496 769 441.5 769 C 395.936504 769 359 761.3888416 359 752 Z" opacity="0.2"/></g><g transform="translate(-142,-62) scale(1,1)"><path fill="#ffffff" stroke="none" d="M 352 745 C 352 735.6111584 388.936504 728 434.5 728 C 480.063496 728 517 735.6111584 517 745 C 517 754.3888416 480.063496 762 434.5 762 C 388.936504 762 352 754.3888416 352 745 Z"/></g><g transform="translate(-142,-62) scale(1,1)"><path fill="none" stroke="#000000" d="M 352 745 C 352 735.6111584 388.936504 728 434.5 728 C 480.063496 728 517 735.6111584 517 745 C 517 754.3888416 480.063496 762 434.5 762 C 388.936504 762 352 754.3888416 352 745 Z" stroke-miterlimit="10"/></g><g transform="translate(-142,-62) scale(1,1)"><g><path fill="none" stroke="none"/><text fill="#000000" stroke="none" font-family="Arial" font-size="13px" font-style="normal" font-weight="bold" text-decoration="none" x="385.369140625" y="752">visualizar horario</text></g></g><g transform="translate(-142,-62) scale(1,1)"><path fill="#C0C0C0" stroke="none" d="M 351 648 C 351 638.6111584 389.7273648 631 437.5 631 C 485.2726352 631 524 638.6111584 524 648 C 524 657.3888416 485.2726352 665 437.5 665 C 389.7273648 665 351 657.3888416 351 648 Z" opacity="0.2"/></g><g transform="translate(-142,-62) scale(1,1)"><path fill="#ffffff" stroke="none" d="M 344 641 C 344 631.6111584 382.7273648 624 430.5 624 C 478.2726352 624 517 631.6111584 517 641 C 517 650.3888416 478.2726352 658 430.5 658 C 382.7273648 658 344 650.3888416 344 641 Z"/></g><g transform="translate(-142,-62) scale(1,1)"><path fill="none" stroke="#000000" d="M 344 641 C 344 631.6111584 382.7273648 624 430.5 624 C 478.2726352 624 517 631.6111584 517 641 C 517 650.3888416 478.2726352 658 430.5 658 C 382.7273648 658 344 650.3888416 344 641 Z" stroke-miterlimit="10"/></g><g transform="translate(-142,-62) scale(1,1)"><g><path fill="none" stroke="none"/><text fill="#000000" stroke="none" font-family="Arial" font-size="13px" font-style="normal" font-weight="bold" text-decoration="none" x="378.122314453125" y="648">visalizar momento</text></g></g><g transform="translate(-142,-62) scale(1,1)"><path fill="#C0C0C0" stroke="none" d="M 583 640 C 583 630.6111584 620.3842192 623 666.5 623 C 712.6157808 623 750 630.6111584 750 640 C 750 649.3888416 712.6157808 657 666.5 657 C 620.3842192 657 583 649.3888416 583 640 Z" opacity="0.2"/></g><g transform="translate(-142,-62) scale(1,1)"><path fill="#ffffff" stroke="none" d="M 576 633 C 576 623.6111584 613.3842192 616 659.5 616 C 705.6157808 616 743 623.6111584 743 633 C 743 642.3888416 705.6157808 650 659.5 650 C 613.3842192 650 576 642.3888416 576 633 Z"/></g><g transform="translate(-142,-62) scale(1,1)"><path fill="none" stroke="#000000" d="M 576 633 C 576 623.6111584 613.3842192 616 659.5 616 C 705.6157808 616 743 623.6111584 743 633 C 743 642.3888416 705.6157808 650 659.5 650 C 613.3842192 650 576 642.3888416 576 633 Z" stroke-miterlimit="10"/></g><g transform="translate(-142,-62) scale(1,1)"><g><path fill="none" stroke="none"/><text fill="#000000" stroke="none" font-family="Arial" font-size="13px" font-style="normal" font-weight="bold" text-decoration="none" x="608.19189453125" y="640">Realizar pregunta</text></g></g><g transform="translate(-142,-62) scale(1,1)"><path fill="#C0C0C0" stroke="none" d="M 599 720 C 599 710.6111584 621.6096176 703 649.5 703 C 677.3903824 703 700 710.6111584 700 720 C 700 729.3888416 677.3903824 737 649.5 737 C 621.6096176 737 599 729.3888416 599 720 Z" opacity="0.2"/></g><g transform="translate(-142,-62) scale(1,1)"><path fill="#ffffff" stroke="none" d="M 592 713 C 592 703.6111584 614.6096176 696 642.5 696 C 670.3903824 696 693 703.6111584 693 713 C 693 722.3888416 670.3903824 730 642.5 730 C 614.6096176 730 592 722.3888416 592 713 Z"/></g><g transform="translate(-142,-62) scale(1,1)"><path fill="none" stroke="#000000" d="M 592 713 C 592 703.6111584 614.6096176 696 642.5 696 C 670.3903824 696 693 703.6111584 693 713 C 693 722.3888416 670.3903824 730 642.5 730 C 614.6096176 730 592 722.3888416 592 713 Z" stroke-miterlimit="10"/></g><g transform="translate(-142,-62) scale(1,1)"><g><path fill="none" stroke="none"/><text fill="#000000" stroke="none" font-family="Arial" font-size="13px" font-style="normal" font-weight="bold" text-decoration="none" x="619.734130859375" y="720">Puntuar</text></g></g><g transform="translate(-142,-62) scale(1,1)"><path fill="none" stroke="#000000" d="M 431 659 L 433 727" stroke-miterlimit="10" stroke-dasharray="3"/></g><g transform="translate(-142,-62) scale(1,1)"><path fill="none" stroke="#000000" d="M 428.4935287866887 716.9654737429415 L 433 727 L 436.9089252082062 716.7179620834851" stroke-miterlimit="10"/></g><g transform="translate(-142,-62) scale(1,1)"><g><path fill="none" stroke="none"/><text fill="#000000" stroke="none" font-family="Arial" font-size="13px" font-style="normal" font-weight="normal" text-decoration="none" x="434" y="699">«include»</text></g></g><g transform="translate(-142,-62) scale(1,1)"><path fill="none" stroke="#000000" d="M 575 636 L 518 638" stroke-miterlimit="10" stroke-dasharray="3"/></g><g transform="translate(-142,-62) scale(1,1)"><path fill="none" stroke="#000000" d="M 528.0088132099695 633.4367053428537 L 518 638 L 528.3040362890195 641.8505630957784" stroke-miterlimit="10"/></g><g transform="translate(-142,-62) scale(1,1)"><g><path fill="none" stroke="none"/><text fill="#000000" stroke="none" font-family="Arial" font-size="13px" font-style="normal" font-weight="normal" text-decoration="none" x="543" y="656">«extend»</text></g></g><g transform="translate(-142,-62) scale(1,1)"><path fill="none" stroke="#000000" d="M 591 696 L 483 659" stroke-miterlimit="10" stroke-dasharray="3"/></g><g transform="translate(-142,-62) scale(1,1)"><path fill="none" stroke="#000000" d="M 493.9784273767808 658.311427322101 L 483 659 L 491.2498148547679 666.2760260350036" stroke-miterlimit="10"/></g><g transform="translate(-142,-62) scale(1,1)"><g><path fill="none" stroke="none"/><text fill="#000000" stroke="none" font-family="Arial" font-size="13px" font-style="normal" font-weight="normal" text-decoration="none" x="504" y="694">«extend»</text></g></g><g transform="translate(-142,-62) scale(1,1)"><path fill="#ffffff" stroke="none" d="M 181.40617649147728 465.68 C 181.40617649147728 460.886167936 185.29201881642274 457 190.08544921875 457 C 194.87887962107726 457 198.76472194602272 460.886167936 198.76472194602272 465.68 C 198.76472194602272 470.473832064 194.87887962107726 474.36 190.08544921875 474.36 C 185.29201881642274 474.36 181.40617649147728 470.473832064 181.40617649147728 465.68 Z"/></g><g transform="translate(-142,-62) scale(1,1)"><path fill="none" stroke="#000000" d="M 181.40617649147728 465.68 C 181.40617649147728 460.886167936 185.29201881642274 457 190.08544921875 457 C 194.87887962107726 457 198.76472194602272 460.886167936 198.76472194602272 465.68 C 198.76472194602272 470.473832064 194.87887962107726 474.36 190.08544921875 474.36 C 185.29201881642274 474.36 181.40617649147728 470.473832064 181.40617649147728 465.68 Z" stroke-miterlimit="10"/></g><g transform="translate(-142,-62) scale(1,1)"><path fill="none" stroke="#000000" d="M 190.08544921875 474.36 L 190.08544921875 491.64" stroke-miterlimit="10"/></g><g transform="translate(-142,-62) scale(1,1)"><path fill="none" stroke="#000000" d="M 180.89563103693183 480.84 L 199.27526740056817 480.84" stroke-miterlimit="10"/></g><g transform="translate(-142,-62) scale(1,1)"><path fill="none" stroke="#000000" d="M 190.08544921875 491.64 L 177.32181285511365 509" stroke-miterlimit="10"/></g><g transform="translate(-142,-62) scale(1,1)"><path fill="none" stroke="#000000" d="M 190.08544921875 491.64 L 202.84908558238635 509" stroke-miterlimit="10"/></g><g transform="translate(-142,-62) scale(1,1)"><g><path fill="none" stroke="none"/><text fill="#000000" stroke="none" font-family="Arial" font-size="13px" font-style="normal" font-weight="bold" text-decoration="none" x="158.65185546875" y="529.5">Moderador</text></g></g><g transform="translate(-142,-62) scale(1,1)"><path fill="#C0C0C0" stroke="none" d="M 343 560 C 343 550.6111584 415.0821472 543 504 543 C 592.9178528 543 665 550.6111584 665 560 C 665 569.3888416 592.9178528 577 504 577 C 415.0821472 577 343 569.3888416 343 560 Z" opacity="0.2"/></g><g transform="translate(-142,-62) scale(1,1)"><path fill="#ffffff" stroke="none" d="M 336 553 C 336 543.6111584 408.0821472 536 497 536 C 585.9178528 536 658 543.6111584 658 553 C 658 562.3888416 585.9178528 570 497 570 C 408.0821472 570 336 562.3888416 336 553 Z"/></g><g transform="translate(-142,-62) scale(1,1)"><path fill="none" stroke="#000000" d="M 336 553 C 336 543.6111584 408.0821472 536 497 536 C 585.9178528 536 658 543.6111584 658 553 C 658 562.3888416 585.9178528 570 497 570 C 408.0821472 570 336 562.3888416 336 553 Z" stroke-miterlimit="10"/></g><g transform="translate(-142,-62) scale(1,1)"><g><path fill="none" stroke="none"/><text fill="#000000" stroke="none" font-family="Arial" font-size="13px" font-style="normal" font-weight="bold" text-decoration="none" x="395.83740234375" y="560">Gestionar preguntas y comentarios</text></g></g><g transform="translate(-142,-62) scale(1,1)"><path fill="#C0C0C0" stroke="none" d="M 543 288 C 543 278.6111584 611.9481408 271 697 271 C 782.0518592 271 851 278.6111584 851 288 C 851 297.3888416 782.0518592 305 697 305 C 611.9481408 305 543 297.3888416 543 288 Z" opacity="0.2"/></g><g transform="translate(-142,-62) scale(1,1)"><path fill="#ffffff" stroke="none" d="M 536 281 C 536 271.6111584 604.9481408 264 690 264 C 775.0518592 264 844 271.6111584 844 281 C 844 290.3888416 775.0518592 298 690 298 C 604.9481408 298 536 290.3888416 536 281 Z"/></g><g transform="translate(-142,-62) scale(1,1)"><path fill="none" stroke="#000000" d="M 536 281 C 536 271.6111584 604.9481408 264 690 264 C 775.0518592 264 844 271.6111584 844 281 C 844 290.3888416 775.0518592 298 690 298 C 604.9481408 298 536 290.3888416 536 281 Z" stroke-miterlimit="10"/></g><g transform="translate(-142,-62) scale(1,1)"><g><path fill="none" stroke="none"/><text fill="#000000" stroke="none" font-family="Arial" font-size="13px" font-style="normal" font-weight="bold" text-decoration="none" x="596.051513671875" y="288">habilitar o deshabilitar preguntas</text></g></g><g transform="translate(-142,-62) scale(1,1)"><path fill="none" stroke="#000000" d="M 535 273 L 494 270" stroke-miterlimit="10" stroke-dasharray="3"/></g><g transform="translate(-142,-62) scale(1,1)"><path fill="none" stroke="#000000" d="M 504.44277060263386 266.5433336665559 L 494 270 L 503.8283861121755 274.93992170282036" stroke-miterlimit="10"/></g><g transform="translate(-142,-62) scale(1,1)"><g><path fill="none" stroke="none"/><text fill="#000000" stroke="none" font-family="Arial" font-size="13px" font-style="normal" font-weight="normal" text-decoration="none" x="486" y="293">«extend»</text></g></g><g transform="translate(-142,-62) scale(1,1)"><path fill="none" stroke="#000000" d="M 229 502 L 402 535" stroke-miterlimit="10"/></g><g transform="translate(-142,-62) scale(1,1)"><path fill="none" stroke="#000000" d="M 483 571 L 444 623" stroke-miterlimit="10" stroke-dasharray="3"/></g><g transform="translate(-142,-62) scale(1,1)"><path fill="none" stroke="#000000" d="M 446.7299907097617 612.3441494602911 L 444 623 L 453.46521911938726 617.3955707675103" stroke-miterlimit="10"/></g><g transform="translate(-142,-62) scale(1,1)"><g><path fill="none" stroke="none"/><text fill="#000000" stroke="none" font-family="Arial" font-size="13px" font-style="normal" font-weight="normal" text-decoration="none" x="460" y="621">«include»</text></g></g><g transform="translate(-142,-62) scale(1,1)"><path fill="#C0C0C0" stroke="none" d="M 463 352 C 463 342.6111584 533.0674288 335 619.5 335 C 705.9325712 335 776 342.6111584 776 352 C 776 361.3888416 705.9325712 369 619.5 369 C 533.0674288 369 463 361.3888416 463 352 Z" opacity="0.2"/></g><g transform="translate(-142,-62) scale(1,1)"><path fill="#ffffff" stroke="none" d="M 456 345 C 456 335.6111584 526.0674288 328 612.5 328 C 698.9325712 328 769 335.6111584 769 345 C 769 354.3888416 698.9325712 362 612.5 362 C 526.0674288 362 456 354.3888416 456 345 Z"/></g><g transform="translate(-142,-62) scale(1,1)"><path fill="none" stroke="#000000" d="M 456 345 C 456 335.6111584 526.0674288 328 612.5 328 C 698.9325712 328 769 335.6111584 769 345 C 769 354.3888416 698.9325712 362 612.5 362 C 526.0674288 362 456 354.3888416 456 345 Z" stroke-miterlimit="10"/></g><g transform="translate(-142,-62) scale(1,1)"><g><path fill="none" stroke="none"/><text fill="#000000" stroke="none" font-family="Arial" font-size="13px" font-style="normal" font-weight="bold" text-decoration="none" x="515.656982421875" y="352">habilitar o deshabilitar puntuación</text></g></g><g transform="translate(-142,-62) scale(1,1)"><path fill="none" stroke="#000000" d="M 563 327 L 443 283" stroke-miterlimit="10" stroke-dasharray="3"/></g><g transform="translate(-142,-62) scale(1,1)"><path fill="none" stroke="#000000" d="M 453.99064078810306 282.54633154519496 L 443 283 L 451.09234867165617 290.4507645900501" stroke-miterlimit="10"/></g><g transform="translate(-142,-62) scale(1,1)"><g><path fill="none" stroke="none"/><text fill="#000000" stroke="none" font-family="Arial" font-size="13px" font-style="normal" font-weight="normal" text-decoration="none" x="456" y="325">«extend»</text></g></g><g transform="translate(-142,-62) scale(1,1)"><path fill="none" stroke="#000000" d="M 221 673 L 343 654" stroke-miterlimit="10"/></g><g transform="translate(-142,-62) scale(1,1)"><path fill="#C0C0C0" stroke="none" d="M 423 504 C 423 494.6111584 458.81721600000003 487 503 487 C 547.182784 487 583 494.6111584 583 504 C 583 513.3888416 547.182784 521 503 521 C 458.81721600000003 521 423 513.3888416 423 504 Z" opacity="0.2"/></g><g transform="translate(-142,-62) scale(1,1)"><path fill="#ffffff" stroke="none" d="M 416 497 C 416 487.6111584 451.81721600000003 480 496 480 C 540.182784 480 576 487.6111584 576 497 C 576 506.3888416 540.182784 514 496 514 C 451.81721600000003 514 416 506.3888416 416 497 Z"/></g><g transform="translate(-142,-62) scale(1,1)"><path fill="none" stroke="#000000" d="M 416 497 C 416 487.6111584 451.81721600000003 480 496 480 C 540.182784 480 576 487.6111584 576 497 C 576 506.3888416 540.182784 514 496 514 C 451.81721600000003 514 416 506.3888416 416 497 Z" stroke-miterlimit="10"/></g><g transform="translate(-142,-62) scale(1,1)"><g><path fill="none" stroke="none"/><text fill="#000000" stroke="none" font-family="Arial" font-size="13px" font-style="normal" font-weight="bold" text-decoration="none" x="447.95458984375" y="504">activar momento</text></g></g><g transform="translate(-142,-62) scale(1,1)"><path fill="none" stroke="#000000" d="M 229 495 L 415 496" stroke-miterlimit="10"/></g><g transform="translate(-142,-62) scale(1,1)"><path fill="#C0C0C0" stroke="none" d="M 335 448 C 335 438.6111584 364.3253456 431 400.5 431 C 436.6746544 431 466 438.6111584 466 448 C 466 457.3888416 436.6746544 465 400.5 465 C 364.3253456 465 335 457.3888416 335 448 Z" opacity="0.2"/></g><g transform="translate(-142,-62) scale(1,1)"><path fill="#ffffff" stroke="none" d="M 328 441 C 328 431.6111584 357.3253456 424 393.5 424 C 429.6746544 424 459 431.6111584 459 441 C 459 450.3888416 429.6746544 458 393.5 458 C 357.3253456 458 328 450.3888416 328 441 Z"/></g><g transform="translate(-142,-62) scale(1,1)"><path fill="none" stroke="#000000" d="M 328 441 C 328 431.6111584 357.3253456 424 393.5 424 C 429.6746544 424 459 431.6111584 459 441 C 459 450.3888416 429.6746544 458 393.5 458 C 357.3253456 458 328 450.3888416 328 441 Z" stroke-miterlimit="10"/></g><g transform="translate(-142,-62) scale(1,1)"><g><path fill="none" stroke="none"/><text fill="#000000" stroke="none" font-family="Arial" font-size="13px" font-style="normal" font-weight="bold" text-decoration="none" x="355.195068359375" y="448">autenticación</text></g></g><g transform="translate(-142,-62) scale(1,1)"><path fill="none" stroke="#000000" d="M 203 249 L 375 423" stroke-miterlimit="10"/></g><g transform="translate(-142,-62) scale(1,1)"><path fill="none" stroke="#000000" d="M 229 485 L 327 459" stroke-miterlimit="10"/></g></g></svg>